<?xml version="1.0" encoding="UTF-8" standalone="no"?>
<svg
   xmlns:dc="http://purl.org/dc/elements/1.1/"
   xmlns:cc="http://creativecommons.org/ns#"
   xmlns:rdf="http://www.w3.org/1999/02/22-rdf-syntax-ns#"
   xmlns:svg="http://www.w3.org/2000/svg"
   xmlns="http://www.w3.org/2000/svg"
   xmlns:sodipodi="http://sodipodi.sourceforge.net/DTD/sodipodi-0.dtd"
   xmlns:inkscape="http://www.inkscape.org/namespaces/inkscape"
   viewBox="0 0 700 700"
   version="1.1"
   id="svg4"
   sodipodi:docname="valorant-logo.svg"
   width="700"
   height="700"
   style="fill:currentColor"
   inkscape:version="0.92.3 (2405546, 2018-03-11)"
   inkscape:export-filename="C:\Users\alex\sites\valorant-logo-0.png"
   inkscape:export-xdpi="561.73712"
   inkscape:export-ydpi="561.73712">
  <metadata
     id="metadata10">
    <rdf:RDF>
      <cc:Work
         rdf:about="">
        <dc:format>image/svg+xml</dc:format>
        <dc:type
           rdf:resource="http://purl.org/dc/dcmitype/StillImage" />
        <dc:title></dc:title>
      </cc:Work>
    </rdf:RDF>
  </metadata>
  <defs
     id="defs8" />
  <sodipodi:namedview
     pagecolor="#ffffff"
     bordercolor="#666666"
     borderopacity="1"
     objecttolerance="10"
     gridtolerance="10"
     guidetolerance="10"
     inkscape:pageopacity="0"
     inkscape:pageshadow="2"
     inkscape:window-width="1600"
     inkscape:window-height="838"
     id="namedview6"
     showgrid="false"
     inkscape:zoom="0.70710678"
     inkscape:cx="334.32018"
     inkscape:cy="266.24036"
     inkscape:window-x="-8"
     inkscape:window-y="-8"
     inkscape:window-maximized="1"
     inkscape:current-layer="svg4" />
  <path
     style="fill:#000000;stroke-width:2.82969952"
     d="m 479.38814,164.58198 c -0.52644,-0.0283 -1.07197,0.17544 -1.4646,0.67426 L 359.30277,313.53358 a 1.7742215,1.7742215 0 0 0 1.38721,2.88497 h 85.71445 c 2.32035,0 4.49812,-1.04631 5.94127,-2.85731 l 27.08112,-33.84035 c 1.07529,-1.35825 1.66908,-3.03242 1.66908,-4.75855 V 166.36161 c 0,-1.04345 -0.83041,-1.73376 -1.70776,-1.77963 z m -275.79622,0.0113 c -0.87738,0.0445 -1.70224,0.72511 -1.70224,1.76856 v 108.60074 c 0,1.72613 0.59379,3.4003 1.66907,4.75854 l 89.10791,111.37522 c 1.44314,1.81101 3.62092,2.85735 5.94127,2.85735 h 85.70893 c 1.49974,0 2.32101,-1.72483 1.38721,-2.885 L 205.05651,165.2565 c -0.39262,-0.48813 -0.93817,-0.68992 -1.46459,-0.6632 z"
     id="path2-9"
     inkscape:connector-curvature="0"
     inkscape:export-filename="C:\Users\alex\sites\valorant-logo-5.png"
     inkscape:export-xdpi="68.464676"
     inkscape:export-ydpi="68.464676" />
  <path
     d="m 569.89918,470.58365 h 20.08305 l 0.065,61.48556 c 0,0.78901 0.64259,1.43973 1.43974,1.43973 l 11.5016,-0.008 c 0.79713,0 1.43973,-0.64258 1.43973,-1.43973 l -0.065,-61.47742 h 25.18313 c 0.7402,0 1.16317,-0.86221 0.6914,-1.43974 l -8.62214,-10.78579 a 3.8067524,3.8067524 0 0 0 -2.96893,-1.43161 h -48.74758 c -0.79715,0 -1.43974,0.64261 -1.43974,1.43974 v 10.7858 c 0,0.78088 0.64259,1.4316 1.43974,1.4316 M 85.221498,532.07749 144.12856,458.3664 c 0.46364,-0.57752 0.0488,-1.43973 -0.6914,-1.43973 h -14.73083 c -1.15504,0 -2.25315,0.52872 -2.96895,1.4316 l -41.792922,52.28591 v -52.28591 c 0,-0.79714 -0.6426,-1.43974 -1.43974,-1.43974 h -11.5016 c -0.79714,0 -1.43973,0.6426 -1.43973,1.43974 v 73.71109 c 0,0.79714 0.64259,1.43973 1.43973,1.43973 h 11.24945 c 1.15503,0 2.245,-0.52871 2.96893,-1.4316 m 41.532652,0 20.26201,-25.35395 20.26201,25.35395 a 3.8108195,3.8108195 0 0 0 2.97708,1.4316 h 11.24944 c 0.79713,0 1.43972,-0.64259 1.43972,-1.43973 v -73.71109 c 0,-0.789 -0.64259,-1.43974 -1.43972,-1.43974 h -9.43554 c -2.31008,0 -4.49815,1.0493 -5.94602,2.85507 l -57.76828,72.28762 c -0.46365,0.57752 -0.0488,1.43974 0.6914,1.43974 h 14.73082 c 1.16318,0.008 2.25315,-0.52058 2.97708,-1.42347 m 41.80107,-53.85578 v 33.95981 l -13.56765,-16.97584 z m 328.91805,53.83951 -58.90705,-73.71109 a 3.8067524,3.8067524 0 0 0 -2.96895,-1.4316 h -11.25758 c -0.79713,0 -1.43972,0.6426 -1.43972,1.43974 v 73.71109 c 0,0.79714 0.64259,1.43973 1.43972,1.43973 h 11.24945 c 1.15504,0 2.25314,-0.52871 2.96894,-1.4316 l 20.26201,-25.35395 20.26201,25.35395 a 3.8067524,3.8067524 0 0 0 2.96895,1.4316 h 14.73082 c 0.7402,0 1.15505,-0.86221 0.6914,-1.44787 m -46.63272,-36.85554 -13.57579,16.98397 V 478.22171 Z M 288.73634,455.00702 c -22.20605,0 -40.20678,18.00074 -40.20678,40.20679 0,22.20605 18.00073,40.20679 40.20678,40.20679 22.20606,0 40.20679,-18.00074 40.20679,-40.20679 0.008,-22.20605 -18.00073,-40.20679 -40.20679,-40.20679 m 0,66.74831 c -14.26718,0 -25.82572,-11.88389 -25.82572,-26.54152 0,-14.65762 11.55854,-26.54966 25.82572,-26.54966 14.26719,0 25.82573,11.8839 25.82573,26.54966 0.008,14.65763 -11.55854,26.54152 -25.82573,26.54152 m 255.35338,-63.39706 v 52.28591 l -41.79293,-52.29405 a 3.8067524,3.8067524 0 0 0 -2.96895,-1.4316 h -11.26571 c -0.789,0 -1.43974,0.6426 -1.43974,1.43974 v 35.52155 c 0,0.86221 0.29284,1.70003 0.83782,2.37516 l 11.96524,14.97485 c 0.52871,0.65886 1.58615,0.2847 1.58615,-0.55312 v -30.90952 l 41.80107,52.3103 a 3.8067524,3.8067524 0 0 0 2.96894,1.4316 h 11.24944 c 0.79714,0 1.43973,-0.64259 1.43973,-1.43973 v -73.71109 c 0,-0.789 -0.64259,-1.43974 -1.43973,-1.43974 h -11.50159 c -0.79715,0 -1.43974,0.65074 -1.43974,1.43974 m -140.52448,15.97535 v -15.97535 c 0,-0.79714 -0.64259,-1.43974 -1.43973,-1.43974 h -58.86639 c -0.79713,0 -1.43972,0.6426 -1.43972,1.43974 v 73.71109 c 0,0.79714 0.64259,1.43973 1.43972,1.43973 h 11.5016 c 0.79715,0 1.43974,-0.64259 1.43974,-1.43973 v -61.47743 h 32.98371 l -22.26298,27.86738 c -0.41485,0.52058 -0.41485,1.26892 0,1.79764 l 25.43529,31.82867 a 3.8067524,3.8067524 0 0 0 2.96893,1.4316 h 14.73084 c 0.7402,0 1.15503,-0.86221 0.69139,-1.43973 l -26.14295,-32.70715 18.12274,-22.6453 c 0.53686,-0.6914 0.83781,-1.52921 0.83781,-2.39142 m -201.91242,59.17547 h 34.13063 c 1.15503,0 2.25313,-0.52871 2.96893,-1.4316 l 8.62213,-10.79393 c 0.46365,-0.57751 0.0489,-1.43974 -0.6914,-1.43974 h -32.08896 v -61.48555 c 0,-0.79714 -0.6426,-1.43974 -1.43973,-1.43974 h -11.5016 c -0.79715,0 -1.43974,0.6426 -1.43974,1.43974 v 73.71109 c 0,0.78901 0.65073,1.43973 1.43974,1.43973"
     id="path2-5"
     inkscape:connector-curvature="0"
     style="fill:#000000;stroke-width:0.81340861"
     inkscape:export-filename="C:\Users\alex\sites\valorant-logo-5.png"
     inkscape:export-xdpi="68.464676"
     inkscape:export-ydpi="68.464676" />
</svg>
